<!DOCTYPE svg PUBLIC "-//W3C//DTD SVG 1.1//EN" "http://www.w3.org/Graphics/SVG/1.1/DTD/svg11.dtd">
<!-- Uploaded to: SVG Repo, www.svgrepo.com, Transformed by: SVG Repo Mixer Tools -->
<svg width="64px" height="64px" viewBox="-12.96 -12.96 97.92 97.92" id="emoji" xmlns="http://www.w3.org/2000/svg" fill="#0D1B2A" transform="rotate(90)" stroke="#0D1B2A">
<g id="SVGRepo_bgCarrier" stroke-width="0" transform="translate(0,0), scale(1)">
<path transform="translate(-12.96, -12.96), scale(3.06)" d="M16,29.86558168257276C17.913999382962125,30.011859207707175,19.693400030086075,29.01125655114414,21.476652955810188,28.3007639366609C23.309065870303176,27.570684751790186,25.469102179516064,27.172819728715368,26.675447503309243,25.612216106668917C27.884680443464333,24.04787688382509,27.920765368840033,21.867974107028925,27.9769666294188,19.891552359022413C28.026233831939663,18.158979645832076,27.345237251402374,16.540485973292377,26.981600211373127,14.845787307790237C26.649807695669548,13.299497266651324,26.38927982838499,11.78458519557174,25.91378480736568,10.276273672779404C25.352351272761645,8.495357717634402,25.330142741461202,6.324806192564712,23.912289664024804,5.109667556905327C22.511218357366978,3.908911355062491,20.372518930848937,4.29981585198118,18.55681151876092,3.9711475445760662C16.786206557426137,3.6506434083640618,15.073727164532814,3.2601963054843663,13.275947727773463,3.184341660289819C11.127870076201786,3.0937066998610687,8.499913053701757,2.0395736726574705,6.903283714821429,3.479444169424516C5.2330800981089345,4.985665339695887,6.566505734259003,7.974049948829914,5.675109132880197,10.038921478514865C4.909397127742886,11.812651507214074,2.7278740543430295,12.705613624053042,2.12764236555601,14.541956459499785C1.5076325638829349,16.438808256028473,1.5101287658155391,18.615721016367537,2.2682925142289427,20.461702225035854C3.0204557510356476,22.293073355483546,4.775923181800738,23.47337870282985,6.309919545273408,24.724987631007266C7.705714272556888,25.863835925677353,9.292404902171219,26.646974413493616,10.883786596097012,27.49120344830775C12.563003829826316,28.382029294731403,14.104648056208308,29.72072928916839,16,29.86558168257276" fill="#303e4f" strokewidth="0"/>
</g>
<g id="SVGRepo_tracerCarrier" stroke-linecap="round" stroke-linejoin="round" stroke="#CCCCCC" stroke-width="4.464"/>
<g id="SVGRepo_iconCarrier"> <g id="color"> <circle cx="36" cy="36.0001" r="28" fill="#778DA9"/> </g> <g id="line"> <circle cx="36" cy="36.0001" r="28" fill="none" stroke="#0D1B2A" stroke-linejoin="round" stroke-width="2.7359999999999998"/> </g> </g>
</svg>