<svg id="visual" viewBox="0 0 1920 1080" width="1920" height="1080" xmlns="http://www.w3.org/2000/svg" xmlns:xlink="http://www.w3.org/1999/xlink" version="1.1"><rect x="0" y="0" width="1920" height="1080" fill="#0D1B2A"></rect><defs><linearGradient id="grad1_0" x1="43.8%" y1="0%" x2="100%" y2="100%"><stop offset="14.444444444444446%" stop-color="#0d1b2a" stop-opacity="1"></stop><stop offset="85.55555555555554%" stop-color="#0d1b2a" stop-opacity="1"></stop></linearGradient></defs><defs><linearGradient id="grad2_0" x1="0%" y1="0%" x2="56.3%" y2="100%"><stop offset="14.444444444444446%" stop-color="#0d1b2a" stop-opacity="1"></stop><stop offset="85.55555555555554%" stop-color="#0d1b2a" stop-opacity="1"></stop></linearGradient></defs><g transform="translate(1920, 0)"><path d="M0 972C-93.9 880.4 -187.8 788.8 -313 755.7C-438.2 722.7 -594.7 748.2 -687.3 687.3C-779.9 626.4 -808.6 479.1 -845.3 350.2C-882.1 221.2 -927.1 110.6 -972 0L0 0Z" fill="#415A77"></path></g><g transform="translate(0, 1080)"><path d="M0 -972C109.3 -922 218.7 -872.1 345.9 -835.2C473.2 -798.3 618.4 -774.5 687.3 -687.3C756.2 -600.1 748.7 -449.6 783.4 -324.5C818.2 -199.4 895.1 -99.7 972 0L0 0Z" fill="#415A77"></path></g></svg>