<svg id="visual" viewBox="0 0 1920 1080" width="1920" height="1080" xmlns="http://www.w3.org/2000/svg" xmlns:xlink="http://www.w3.org/1999/xlink" version="1.1"><rect x="0" y="0" width="1920" height="1080" fill="#0D1B2A"></rect><path d="M0 820L45.7 799C91.3 778 182.7 736 274.2 738.5C365.7 741 457.3 788 548.8 792.3C640.3 796.7 731.7 758.3 823 736.5C914.3 714.7 1005.7 709.3 1097 724.3C1188.3 739.3 1279.7 774.7 1371.2 775.2C1462.7 775.7 1554.3 741.3 1645.8 743.8C1737.3 746.3 1828.7 785.7 1874.3 805.3L1920 825L1920 1081L1874.3 1081C1828.7 1081 1737.3 1081 1645.8 1081C1554.3 1081 1462.7 1081 1371.2 1081C1279.7 1081 1188.3 1081 1097 1081C1005.7 1081 914.3 1081 823 1081C731.7 1081 640.3 1081 548.8 1081C457.3 1081 365.7 1081 274.2 1081C182.7 1081 91.3 1081 45.7 1081L0 1081Z" fill="#415A77" stroke-linecap="round" stroke-linejoin="miter"></path></svg>